<svg width="15" height="15" viewBox="0 0 15 15" fill="none" xmlns="http://www.w3.org/2000/svg">
<path d="M7.5 1.5C6.17392 1.5 4.90215 2.02678 3.96447 2.96447C3.02678 3.90215 2.5 5.17392 2.5 6.5C2.5 7.82608 3.02678 9.09785 3.96447 10.0355C4.90215 10.9732 6.17392 11.5 7.5 11.5C8.82608 11.5 10.0979 10.9732 11.0355 10.0355C11.9732 9.09785 12.5 7.82608 12.5 6.5C12.5 5.17392 11.9732 3.90215 11.0355 2.96447C10.0979 2.02678 8.82608 1.5 7.5 1.5V1.5ZM1.25 6.5C1.25 3.04813 4.04813 0.25 7.5 0.25C10.9519 0.25 13.75 3.04813 13.75 6.5C13.75 9.95188 10.9519 12.75 7.5 12.75C4.04813 12.75 1.25 9.95188 1.25 6.5Z" fill="white"/>
<path d="M7.5 5.25C7.66576 5.25 7.82473 5.31585 7.94194 5.43306C8.05915 5.55027 8.125 5.70924 8.125 5.875V9.625C8.125 9.79076 8.05915 9.94973 7.94194 10.0669C7.82473 10.1842 7.66576 10.25 7.5 10.25C7.33424 10.25 7.17527 10.1842 7.05806 10.0669C6.94085 9.94973 6.875 9.79076 6.875 9.625V5.875C6.875 5.70924 6.94085 5.55027 7.05806 5.43306C7.17527 5.31585 7.33424 5.25 7.5 5.25V5.25ZM8.4375 3.6875C8.4375 3.93614 8.33873 4.1746 8.16291 4.35041C7.9871 4.52623 7.74864 4.625 7.5 4.625C7.25136 4.625 7.0129 4.52623 6.83709 4.35041C6.66127 4.1746 6.5625 3.93614 6.5625 3.6875C6.5625 3.43886 6.66127 3.2004 6.83709 3.02459C7.0129 2.84877 7.25136 2.75 7.5 2.75C7.74864 2.75 7.9871 2.84877 8.16291 3.02459C8.33873 3.2004 8.4375 3.43886 8.4375 3.6875V3.6875Z" fill="white"/>
</svg>
