<svg width="18" height="13" viewBox="0 0 18 13" fill="none" xmlns="http://www.w3.org/2000/svg">
<path d="M2.33268 12.8335H0.666016C0.666016 10.0721 2.90459 7.8335 5.66602 7.8335C8.42744 7.8335 10.666 10.0721 10.666 12.8335H8.99935C8.99935 10.9925 7.50697 9.50016 5.66602 9.50016C3.82507 9.50016 2.33268 10.9925 2.33268 12.8335ZM14.8327 10.3335H13.166V7.8335H10.666V6.16683H13.166V3.66683H14.8327V6.16683H17.3327V7.8335H14.8327V10.3335ZM5.66602 7.00016C3.82507 7.00016 2.33268 5.50778 2.33268 3.66683C2.33268 1.82588 3.82507 0.333496 5.66602 0.333496C7.50697 0.333496 8.99935 1.82588 8.99935 3.66683C8.99705 5.50683 7.50601 6.99787 5.66602 7.00016ZM5.66602 2.00016C4.75551 2.00109 4.01426 2.73254 4.00121 3.64295C3.98816 4.55336 4.70815 5.30575 5.61826 5.33276C6.52836 5.35978 7.29171 4.65141 7.33268 3.74183V4.07516V3.66683C7.33268 2.74635 6.58649 2.00016 5.66602 2.00016Z" fill="#777C90"/>
</svg>
