<svg width="25" height="25" viewBox="0 0 25 25" fill="none" xmlns="http://www.w3.org/2000/svg">
<path fill-rule="evenodd" clip-rule="evenodd" d="M5.55469 12.4141C5.55469 11.926 5.9504 11.5303 6.43853 11.5303H18.8123C19.3004 11.5303 19.6961 11.926 19.6961 12.4141C19.6961 12.9022 19.3004 13.298 18.8123 13.298H6.43853C5.9504 13.298 5.55469 12.9022 5.55469 12.4141Z" fill="#252733"/>
<path fill-rule="evenodd" clip-rule="evenodd" d="M12.0011 5.60213C12.3462 5.25697 12.9058 5.25697 13.251 5.60213L19.4379 11.789C19.783 12.1342 19.783 12.6938 19.4379 13.0389L13.251 19.2258C12.9058 19.571 12.3462 19.571 12.0011 19.2258C11.6559 18.8806 11.6559 18.321 12.0011 17.9759L17.563 12.414L12.0011 6.85207C11.6559 6.50691 11.6559 5.94729 12.0011 5.60213Z" fill="#252733"/>
</svg>
