<svg width="25" height="25" viewBox="0 0 25 25" fill="none" xmlns="http://www.w3.org/2000/svg">
<path fill-rule="evenodd" clip-rule="evenodd" d="M5.30273 12.4141C5.30273 11.926 5.69844 11.5303 6.18657 11.5303H18.5603C19.0484 11.5303 19.4441 11.926 19.4441 12.4141C19.4441 12.9022 19.0484 13.298 18.5603 13.298H6.18657C5.69844 13.298 5.30273 12.9022 5.30273 12.4141Z" fill="#252733"/>
<path fill-rule="evenodd" clip-rule="evenodd" d="M12.9984 5.60213C13.3436 5.94729 13.3436 6.50691 12.9984 6.85207L7.43651 12.414L12.9984 17.9759C13.3436 18.321 13.3436 18.8806 12.9984 19.2258C12.6532 19.571 12.0936 19.571 11.7485 19.2258L5.5616 13.0389C5.21644 12.6938 5.21644 12.1342 5.5616 11.789L11.7485 5.60213C12.0936 5.25697 12.6532 5.25697 12.9984 5.60213Z" fill="#252733"/>
</svg>
