<svg width="36" height="36" viewBox="0 0 36 36" fill="none" xmlns="http://www.w3.org/2000/svg">
<rect width="36" height="36" rx="5" fill="white"/>
<rect width="36" height="36" rx="5" fill="#FFC700" fill-opacity="0.1"/>
<path d="M22.54 17.0002L19 13.4602L20.41 12.0502L22.53 14.1702L26.77 9.93018L28.18 11.3402L22.54 17.0002ZM17 13.0002H8V15.0002H17V13.0002ZM27 19.4102L25.59 18.0002L23 20.5902L20.41 18.0002L19 19.4102L21.59 22.0002L19 24.5902L20.41 26.0002L23 23.4102L25.59 26.0002L27 24.5902L24.41 22.0002L27 19.4102ZM17 21.0002H8V23.0002H17V21.0002Z" fill="#FFC700"/>
</svg>
