<svg width="15" height="13" viewBox="0 0 15 13" fill="none" xmlns="http://www.w3.org/2000/svg">
<path fill-rule="evenodd" clip-rule="evenodd" d="M2.99399 0.001767C2.92875 0.0018384 2.86417 0.014669 2.804 0.0395232C2.74383 0.0643774 2.6893 0.100765 2.64353 0.146553C2.59776 0.192342 2.56162 0.246635 2.53733 0.306269C2.51304 0.365902 2.50107 0.429687 2.50203 0.493932V1.63542H0.497974C0.43279 1.63511 0.368238 1.64745 0.30791 1.67177C0.247582 1.69608 0.192671 1.73188 0.146411 1.7771C0.100152 1.82232 0.0634324 1.87607 0.0383057 1.9353C0.0131789 1.99453 0.000157067 2.05806 0 2.12224V12.5132C0.000157067 12.5774 0.0131789 12.6409 0.0383057 12.7001C0.0634324 12.7593 0.100152 12.8131 0.146411 12.8583C0.192671 12.9035 0.247582 12.9393 0.30791 12.9636C0.368238 12.988 0.43279 13.0003 0.497974 13H14.502C14.5672 13.0003 14.6318 12.988 14.6921 12.9636C14.7524 12.9393 14.8073 12.9035 14.8536 12.8583C14.8998 12.8131 14.9366 12.7593 14.9617 12.7001C14.9868 12.6409 14.9998 12.5774 15 12.5132V2.06967C14.9855 1.9496 14.9268 1.83895 14.8351 1.7586C14.7433 1.67826 14.6248 1.63381 14.502 1.63365H12.498V0.496889C12.4994 0.432785 12.488 0.369024 12.4643 0.309298C12.4406 0.249572 12.4052 0.195043 12.36 0.148861C12.3148 0.102679 12.2608 0.0657588 12.2011 0.0402084C12.1414 0.014658 12.0771 0.000997307 12.012 0H11.994C11.9287 7.1396e-05 11.8642 0.012902 11.804 0.0377562C11.7438 0.0626104 11.6893 0.0989975 11.6435 0.144786C11.5978 0.190575 11.5616 0.244868 11.5373 0.304502C11.513 0.364135 11.5011 0.42792 11.502 0.492165V1.63365H3.49797V0.496889C3.49941 0.432785 3.48797 0.369024 3.46428 0.309298C3.4406 0.249572 3.40516 0.195043 3.35999 0.148861C3.31482 0.102679 3.26084 0.0657588 3.20112 0.0402084C3.1414 0.014658 3.07712 0.000997307 3.01201 0H2.99399V0.001767ZM1.00203 2.60968H13.998V3.90952H1.00203V2.60968ZM1.00203 4.88259H13.998V12.0257H1.00203V4.88259ZM2.44797 5.85629C2.38185 5.85816 2.31678 5.87306 2.25659 5.9001C2.1964 5.92713 2.1423 5.96575 2.09751 6.01369C2.05272 6.06164 2.0182 6.11794 1.99585 6.17925C1.9735 6.24056 1.96383 6.30565 1.96743 6.3707C1.97104 6.43575 1.9878 6.49945 2.0168 6.558C2.04579 6.61656 2.08643 6.6688 2.13626 6.71166C2.18608 6.75452 2.24409 6.78709 2.30691 6.80751C2.36973 6.82793 2.43608 6.83577 2.50203 6.83055H4.16397C4.29609 6.83278 4.42377 6.78361 4.51926 6.69366C4.61476 6.60372 4.67041 6.48029 4.67402 6.35022C4.67482 6.28593 4.66268 6.22214 4.63835 6.16248C4.61403 6.10282 4.57795 6.04845 4.53223 6.00255C4.48651 5.95665 4.43208 5.92012 4.37197 5.89501C4.31187 5.86991 4.24727 5.85675 4.18198 5.85629H2.44797ZM6.61201 5.85629C6.54588 5.85816 6.48082 5.87306 6.42063 5.9001C6.36044 5.92713 6.30634 5.96575 6.26155 6.01369C6.21676 6.06164 6.18216 6.11794 6.15981 6.17925C6.13747 6.24056 6.12779 6.30565 6.1314 6.3707C6.135 6.43575 6.15184 6.49945 6.18084 6.558C6.20983 6.61656 6.2504 6.6688 6.30022 6.71166C6.35004 6.75452 6.40805 6.78709 6.47087 6.80751C6.53369 6.82793 6.60005 6.83577 6.66599 6.83055H8.33401C8.40031 6.83348 8.46649 6.82326 8.52869 6.80048C8.59089 6.7777 8.6478 6.74283 8.69604 6.69796C8.74429 6.65308 8.78294 6.59911 8.80957 6.53925C8.83621 6.47939 8.85029 6.41488 8.8511 6.34953C8.8519 6.28419 8.83934 6.21935 8.81419 6.15888C8.78903 6.0984 8.75181 6.04352 8.70469 5.9975C8.65757 5.95149 8.60151 5.91527 8.53989 5.89101C8.47827 5.86675 8.41237 5.85494 8.34602 5.85629H6.61201ZM10.782 5.85629C10.717 5.85939 10.6533 5.87506 10.5945 5.90241C10.5357 5.92976 10.4829 5.96825 10.4392 6.01568C10.3955 6.06311 10.3617 6.11856 10.3397 6.17885C10.3178 6.23914 10.3082 6.30309 10.3113 6.36706C10.3145 6.43103 10.3304 6.49378 10.3581 6.55169C10.3859 6.60961 10.425 6.66155 10.4732 6.70459C10.5214 6.74763 10.5776 6.78092 10.6389 6.80253C10.7001 6.82415 10.7651 6.83366 10.83 6.83055H12.498C12.5641 6.83368 12.6303 6.8237 12.6924 6.8012C12.7546 6.7787 12.8116 6.74412 12.8599 6.69954C12.9083 6.65497 12.9471 6.60131 12.974 6.5417C13.0009 6.4821 13.0154 6.41778 13.0166 6.35256C13.0178 6.28734 13.0057 6.22254 12.981 6.16201C12.9563 6.10148 12.9196 6.04645 12.8729 6.00017C12.8262 5.95389 12.7706 5.91731 12.7093 5.8926C12.648 5.86788 12.5822 5.85554 12.516 5.85629H10.782ZM2.44797 7.96731C2.31685 7.97437 2.19395 8.03244 2.1063 8.12873C2.01864 8.22501 1.97345 8.35164 1.98062 8.48075C1.98778 8.60987 2.04675 8.73089 2.14453 8.81721C2.24231 8.90352 2.3709 8.94806 2.50203 8.94101H4.16397C4.29603 8.94339 4.42375 8.89432 4.51926 8.80448C4.61477 8.71463 4.67041 8.59127 4.67402 8.46125C4.6749 8.39694 4.6628 8.3331 4.6385 8.2734C4.6142 8.21371 4.57818 8.15935 4.53245 8.11343C4.48671 8.06752 4.43219 8.03098 4.37205 8.0059C4.3119 7.98082 4.24729 7.9677 4.18198 7.96731H2.50203C2.48405 7.96613 2.46595 7.96613 2.44797 7.96731ZM6.61201 7.96731C6.54709 7.97081 6.4835 7.98686 6.42488 8.01455C6.36625 8.04225 6.31374 8.08105 6.27034 8.12873C6.22693 8.1764 6.19347 8.232 6.1719 8.29241C6.15033 8.35281 6.14103 8.41682 6.14458 8.48075C6.14813 8.54469 6.16443 8.6073 6.19255 8.66503C6.22068 8.72276 6.26008 8.77447 6.3085 8.81721C6.35691 8.85995 6.41342 8.89286 6.47476 8.9141C6.5361 8.93534 6.60107 8.9445 6.66599 8.94101H8.33401C8.39893 8.94178 8.46335 8.92996 8.52363 8.90621C8.58392 8.88246 8.63889 8.84726 8.68535 8.8026C8.73182 8.75794 8.76891 8.70469 8.79448 8.64592C8.82006 8.58715 8.83361 8.52399 8.8344 8.46006C8.83519 8.39612 8.82322 8.33266 8.7991 8.27329C8.77498 8.21393 8.7392 8.15984 8.69385 8.11408C8.6485 8.06833 8.59445 8.0318 8.53477 8.00662C8.47508 7.98144 8.41095 7.96809 8.34602 7.96731H6.66599C6.64801 7.96613 6.62999 7.96613 6.61201 7.96731ZM10.782 7.96731C10.7167 7.96989 10.6526 7.98517 10.5933 8.01228C10.534 8.03939 10.4808 8.07782 10.4366 8.1253C10.3925 8.17278 10.3583 8.22837 10.3362 8.28891C10.314 8.34945 10.3042 8.4137 10.3074 8.47798C10.3105 8.54226 10.3267 8.6053 10.3547 8.66344C10.3827 8.72158 10.4221 8.77369 10.4707 8.81674C10.5193 8.85978 10.5761 8.89292 10.6378 8.91425C10.6994 8.93558 10.7648 8.94467 10.83 8.94101H12.498C12.6291 8.94336 12.7558 8.89433 12.8502 8.80469C12.9446 8.71506 12.999 8.59213 13.0014 8.46301C13.0038 8.33389 12.954 8.20914 12.8629 8.11618C12.7719 8.02321 12.6471 7.96966 12.516 7.96731H10.83C10.8141 7.96612 10.798 7.96612 10.782 7.96731ZM2.44797 10.0778C2.38185 10.0796 2.31678 10.0945 2.25659 10.1216C2.1964 10.1486 2.1423 10.1872 2.09751 10.2352C2.05272 10.2831 2.0182 10.3394 1.99585 10.4007C1.9735 10.462 1.96383 10.5271 1.96743 10.5922C1.97104 10.6572 1.9878 10.7209 2.0168 10.7794C2.04579 10.838 2.08643 10.8902 2.13626 10.9331C2.18608 10.976 2.24409 11.0086 2.30691 11.029C2.36973 11.0494 2.43608 11.0573 2.50203 11.052H4.16397C4.29604 11.0541 4.42366 11.0048 4.51912 10.9149C4.61458 10.825 4.67025 10.7017 4.67402 10.5717C4.6749 10.5074 4.6628 10.4436 4.6385 10.3839C4.6142 10.3242 4.57818 10.2698 4.53245 10.2239C4.48671 10.1779 4.43219 10.1414 4.37205 10.1163C4.3119 10.0912 4.24729 10.0782 4.18198 10.0778H2.50203C2.48405 10.0766 2.46595 10.0766 2.44797 10.0778ZM6.61201 10.0778C6.54588 10.0796 6.48082 10.0945 6.42063 10.1216C6.36044 10.1486 6.30634 10.1872 6.26155 10.2352C6.21676 10.2831 6.18216 10.3394 6.15981 10.4007C6.13747 10.462 6.12779 10.5271 6.1314 10.5922C6.135 10.6572 6.15184 10.7209 6.18084 10.7794C6.20983 10.838 6.2504 10.8902 6.30022 10.9331C6.35004 10.976 6.40805 11.0086 6.47087 11.029C6.53369 11.0494 6.60005 11.0573 6.66599 11.052H8.33401C8.40031 11.055 8.46649 11.0447 8.52869 11.022C8.59089 10.9992 8.6478 10.9643 8.69604 10.9194C8.74429 10.8745 8.78294 10.8206 8.80957 10.7607C8.83621 10.7009 8.85029 10.6364 8.8511 10.571C8.8519 10.5057 8.83934 10.4408 8.81419 10.3804C8.78903 10.3199 8.75181 10.265 8.70469 10.219C8.65757 10.173 8.60151 10.1368 8.53989 10.1125C8.47827 10.0882 8.41237 10.0764 8.34602 10.0778H6.66599C6.64801 10.0766 6.62999 10.0766 6.61201 10.0778ZM10.782 10.0778C10.717 10.0809 10.6533 10.0965 10.5945 10.1239C10.5357 10.1512 10.4829 10.1897 10.4392 10.2372C10.3955 10.2846 10.3617 10.34 10.3397 10.4003C10.3178 10.4606 10.3082 10.5246 10.3113 10.5885C10.3145 10.6525 10.3304 10.7152 10.3581 10.7731C10.3859 10.8311 10.425 10.883 10.4732 10.9261C10.5214 10.9691 10.5776 11.0024 10.6389 11.024C10.7001 11.0456 10.7651 11.0551 10.83 11.052H12.498C12.5641 11.0552 12.6303 11.0452 12.6924 11.0227C12.7546 11.0002 12.8116 10.9656 12.8599 10.921C12.9083 10.8764 12.9471 10.8228 12.974 10.7631C13.0009 10.7035 13.0154 10.6393 13.0166 10.574C13.0178 10.5088 13.0057 10.444 12.981 10.3835C12.9563 10.323 12.9196 10.2679 12.8729 10.2217C12.8262 10.1754 12.7706 10.1388 12.7093 10.1141C12.648 10.0894 12.5822 10.077 12.516 10.0778H10.83C10.8141 10.0766 10.798 10.0766 10.782 10.0778Z" fill="#777C90"/>
</svg>
