<svg width="14" height="14" viewBox="0 0 14 14" fill="none" xmlns="http://www.w3.org/2000/svg">
<path d="M0 1C0 0.447716 0.447715 0 1 0H13C13.5523 0 14 0.447715 14 1V13C14 13.5523 13.5523 14 13 14H1C0.447716 14 0 13.5523 0 13V1Z" fill="#12CC8E"/>
<path d="M9.91792 4.22832L9.91797 4.22835C9.97304 4.25963 10.0218 4.30183 10.0613 4.3527C10.1008 4.40357 10.1302 4.46208 10.1478 4.52495C10.1654 4.58782 10.1706 4.65367 10.1633 4.7187C10.1562 4.78124 10.1377 4.84169 10.1087 4.89687L6.94888 9.56622L6.94436 9.5729L6.94051 9.57997C6.904 9.64708 6.85292 9.70427 6.79156 9.74727C6.73167 9.78923 6.66352 9.81662 6.59225 9.82762L6.51526 9.8333C6.39201 9.8318 6.27213 9.78136 6.18236 9.68941L6.18241 9.68935L6.17867 9.68575L3.98058 7.57022C3.9348 7.52487 3.89808 7.47052 3.87272 7.41019C3.84722 7.34956 3.83375 7.28422 3.83319 7.21802C3.83263 7.15181 3.84498 7.08623 3.86945 7.02514C3.89391 6.96406 3.92995 6.90879 3.97528 6.86248C4.0206 6.81618 4.0743 6.77977 4.13314 6.75517C4.19197 6.73058 4.25488 6.71826 4.31823 6.71882C4.38157 6.71938 4.44427 6.73282 4.5027 6.75846C4.56113 6.7841 4.61421 6.82148 4.65876 6.8686L4.65855 6.8688L4.66573 6.87554L6.25752 8.37164L6.39754 8.50324L6.50802 8.34603L9.25595 4.43628L9.26147 4.42842L9.26605 4.41998C9.29699 4.36301 9.33849 4.31306 9.38801 4.27288C9.43753 4.2327 9.49411 4.20304 9.55448 4.18543C9.61483 4.16781 9.67793 4.16254 9.74019 4.16987C9.80247 4.17721 9.86286 4.19702 9.91792 4.22832Z" fill="white" stroke="#12CC8E" stroke-width="0.333333"/>
</svg>
