<svg width="30" height="31" viewBox="0 0 30 31" fill="none" xmlns="http://www.w3.org/2000/svg">
<rect y="0.5" width="30" height="30" rx="5" fill="#047BA0"/>
<path fill-rule="evenodd" clip-rule="evenodd" d="M10.1942 8.90219C10.1289 8.90226 10.0644 8.91529 10.0042 8.94053C9.94403 8.96577 9.8895 9.00272 9.84373 9.04922C9.79795 9.09572 9.76182 9.15085 9.73752 9.21141C9.71323 9.27197 9.70127 9.33675 9.70222 9.40199V10.5612H7.69817C7.63299 10.5609 7.56843 10.5734 7.50811 10.5981C7.44778 10.6228 7.39287 10.6592 7.34661 10.7051C7.30035 10.751 7.26363 10.8056 7.2385 10.8657C7.21337 10.9259 7.20035 10.9904 7.2002 11.0556V21.6078C7.20035 21.673 7.21337 21.7375 7.2385 21.7976C7.26363 21.8578 7.30035 21.9124 7.34661 21.9583C7.39287 22.0042 7.44778 22.0406 7.50811 22.0653C7.56843 22.09 7.63299 22.1025 7.69817 22.1022H21.7022C21.7674 22.1025 21.832 22.09 21.8923 22.0653C21.9526 22.0406 22.0075 22.0042 22.0538 21.9583C22.1 21.9124 22.1368 21.8578 22.1619 21.7976C22.187 21.7375 22.2 21.673 22.2002 21.6078V11.0022C22.1857 10.8803 22.127 10.7679 22.0353 10.6863C21.9435 10.6047 21.825 10.5596 21.7022 10.5594H19.6982V9.40499C19.6996 9.33989 19.6882 9.27514 19.6645 9.21449C19.6408 9.15384 19.6054 9.09846 19.5602 9.05156C19.515 9.00466 19.461 8.96717 19.4013 8.94122C19.3416 8.91528 19.2773 8.9014 19.2122 8.90039H19.1942C19.1289 8.90046 19.0644 8.91349 19.0042 8.93873C18.944 8.96397 18.8895 9.00092 18.8437 9.04742C18.798 9.09392 18.7618 9.14906 18.7375 9.20962C18.7132 9.27018 18.7013 9.33495 18.7022 9.4002V10.5594H10.6982V9.40499C10.6996 9.33989 10.6882 9.27514 10.6645 9.21449C10.6408 9.15384 10.6054 9.09846 10.5602 9.05156C10.515 9.00466 10.461 8.96717 10.4013 8.94122C10.3416 8.91528 10.2773 8.9014 10.2122 8.90039H10.1942V8.90219ZM8.20222 11.5506H21.1982V12.8706H8.20222V11.5506ZM8.20222 13.8588H21.1982V21.1128H8.20222V13.8588ZM9.64817 14.8476C9.58204 14.8495 9.51698 14.8646 9.45679 14.8921C9.3966 14.9195 9.34249 14.9587 9.29771 15.0074C9.25292 15.0561 9.21839 15.1133 9.19605 15.1756C9.1737 15.2378 9.16402 15.3039 9.16763 15.37C9.17123 15.436 9.188 15.5007 9.21699 15.5602C9.24598 15.6197 9.28663 15.6727 9.33645 15.7162C9.38627 15.7598 9.44428 15.7928 9.5071 15.8136C9.56992 15.8343 9.63628 15.8423 9.70222 15.837H11.3642C11.4963 15.8392 11.624 15.7893 11.7195 15.698C11.815 15.6066 11.8706 15.4813 11.8742 15.3492C11.875 15.2839 11.8629 15.2191 11.8386 15.1585C11.8142 15.0979 11.7781 15.0427 11.7324 14.9961C11.6867 14.9495 11.6323 14.9124 11.5722 14.8869C11.5121 14.8614 11.4475 14.8481 11.3822 14.8476H9.64817ZM13.8122 14.8476C13.7461 14.8495 13.681 14.8646 13.6208 14.8921C13.5606 14.9195 13.5065 14.9587 13.4617 15.0074C13.417 15.0561 13.3824 15.1133 13.36 15.1756C13.3377 15.2378 13.328 15.3039 13.3316 15.37C13.3352 15.436 13.352 15.5007 13.381 15.5602C13.41 15.6197 13.4506 15.6727 13.5004 15.7162C13.5502 15.7598 13.6082 15.7928 13.6711 15.8136C13.7339 15.8343 13.8002 15.8423 13.8662 15.837H15.5342C15.6005 15.8399 15.6667 15.8296 15.7289 15.8064C15.7911 15.7833 15.848 15.7479 15.8962 15.7023C15.9445 15.6567 15.9831 15.6019 16.0098 15.5412C16.0364 15.4804 16.0505 15.4148 16.0513 15.3485C16.0521 15.2821 16.0395 15.2163 16.0144 15.1549C15.9892 15.0935 15.952 15.0377 15.9049 14.991C15.8578 14.9443 15.8017 14.9075 15.7401 14.8828C15.6785 14.8582 15.6126 14.8462 15.5462 14.8476H13.8122ZM17.9822 14.8476C17.9172 14.8507 17.8535 14.8666 17.7947 14.8944C17.7359 14.9222 17.6831 14.9613 17.6394 15.0094C17.5957 15.0576 17.5619 15.1139 17.5399 15.1752C17.518 15.2364 17.5084 15.3013 17.5115 15.3663C17.5147 15.4312 17.5306 15.495 17.5583 15.5538C17.5861 15.6126 17.6252 15.6653 17.6734 15.7091C17.7216 15.7528 17.7778 15.7866 17.8391 15.8085C17.9003 15.8305 17.9653 15.8401 18.0302 15.837H19.6982C19.7643 15.8401 19.8305 15.83 19.8926 15.8072C19.9548 15.7843 20.0118 15.7492 20.0601 15.7039C20.1085 15.6587 20.1473 15.6042 20.1742 15.5436C20.2011 15.4831 20.2156 15.4178 20.2168 15.3516C20.218 15.2853 20.2059 15.2195 20.1812 15.1581C20.1565 15.0966 20.1198 15.0407 20.0731 14.9937C20.0264 14.9467 19.9708 14.9096 19.9095 14.8845C19.8482 14.8594 19.7824 14.8468 19.7162 14.8476H17.9822ZM9.64817 16.9914C9.51705 16.9985 9.39415 17.0575 9.30649 17.1553C9.21884 17.2531 9.17365 17.3817 9.18081 17.5128C9.18797 17.6439 9.24695 17.7668 9.34473 17.8545C9.44251 17.9421 9.5711 17.9873 9.70222 17.9802H11.3642C11.4962 17.9826 11.6239 17.9328 11.7195 17.8415C11.815 17.7503 11.8706 17.625 11.8742 17.493C11.8751 17.4277 11.863 17.3628 11.8387 17.3022C11.8144 17.2416 11.7784 17.1864 11.7326 17.1398C11.6869 17.0931 11.6324 17.056 11.5722 17.0306C11.5121 17.0051 11.4475 16.9918 11.3822 16.9914H9.70222C9.68424 16.9902 9.66615 16.9902 9.64817 16.9914ZM13.8122 16.9914C13.7473 16.9949 13.6837 17.0112 13.6251 17.0394C13.5664 17.0675 13.5139 17.1069 13.4705 17.1553C13.4271 17.2037 13.3937 17.2602 13.3721 17.3215C13.3505 17.3829 13.3412 17.4479 13.3448 17.5128C13.3483 17.5777 13.3646 17.6413 13.3927 17.6999C13.4209 17.7586 13.4603 17.8111 13.5087 17.8545C13.5571 17.8979 13.6136 17.9313 13.675 17.9529C13.7363 17.9744 13.8013 17.9837 13.8662 17.9802H15.5342C15.5991 17.981 15.6635 17.969 15.7238 17.9448C15.7841 17.9207 15.8391 17.885 15.8855 17.8396C15.932 17.7943 15.9691 17.7402 15.9947 17.6805C16.0203 17.6208 16.0338 17.5567 16.0346 17.4918C16.0354 17.4268 16.0234 17.3624 15.9993 17.3021C15.9752 17.2418 15.9394 17.1869 15.894 17.1404C15.8487 17.094 15.7946 17.0569 15.735 17.0313C15.6753 17.0057 15.6111 16.9922 15.5462 16.9914H13.8662C13.8482 16.9902 13.8302 16.9902 13.8122 16.9914ZM17.9822 16.9914C17.9169 16.994 17.8528 17.0095 17.7935 17.037C17.7342 17.0646 17.681 17.1036 17.6368 17.1518C17.5927 17.2 17.5585 17.2565 17.5364 17.318C17.5142 17.3794 17.5044 17.4447 17.5076 17.51C17.5107 17.5753 17.5268 17.6393 17.5549 17.6983C17.5829 17.7574 17.6223 17.8103 17.6709 17.854C17.7195 17.8977 17.7763 17.9314 17.838 17.953C17.8996 17.9747 17.965 17.9839 18.0302 17.9802H19.6982C19.8293 17.9826 19.956 17.9328 20.0504 17.8418C20.1448 17.7507 20.1992 17.6259 20.2016 17.4948C20.2039 17.3637 20.1542 17.237 20.0631 17.1426C19.9721 17.0481 19.8473 16.9938 19.7162 16.9914H18.0302C18.0142 16.9902 17.9982 16.9902 17.9822 16.9914ZM9.64817 19.1346C9.58204 19.1365 9.51698 19.1516 9.45679 19.1791C9.3966 19.2065 9.34249 19.2458 9.29771 19.2944C9.25292 19.3431 9.21839 19.4003 9.19605 19.4626C9.1737 19.5248 9.16402 19.5909 9.16763 19.657C9.17123 19.7231 9.188 19.7877 9.21699 19.8472C9.24598 19.9066 9.28663 19.9597 9.33645 20.0032C9.38627 20.0467 9.44428 20.0798 9.5071 20.1006C9.56992 20.1213 9.63628 20.1293 9.70222 20.124H11.3642C11.4962 20.1261 11.6239 20.0761 11.7193 19.9848C11.8148 19.8934 11.8704 19.7682 11.8742 19.6362C11.8751 19.5709 11.863 19.5061 11.8387 19.4454C11.8144 19.3848 11.7784 19.3296 11.7326 19.2829C11.6869 19.2363 11.6324 19.1992 11.5722 19.1737C11.5121 19.1483 11.4475 19.135 11.3822 19.1346H9.70222C9.68424 19.1334 9.66615 19.1334 9.64817 19.1346ZM13.8122 19.1346C13.7461 19.1365 13.681 19.1516 13.6208 19.1791C13.5606 19.2065 13.5065 19.2458 13.4617 19.2944C13.417 19.3431 13.3824 19.4003 13.36 19.4626C13.3377 19.5248 13.328 19.5909 13.3316 19.657C13.3352 19.7231 13.352 19.7877 13.381 19.8472C13.41 19.9066 13.4506 19.9597 13.5004 20.0032C13.5502 20.0467 13.6082 20.0798 13.6711 20.1006C13.7339 20.1213 13.8002 20.1293 13.8662 20.124H15.5342C15.6005 20.127 15.6667 20.1166 15.7289 20.0934C15.7911 20.0703 15.848 20.0349 15.8962 19.9893C15.9445 19.9437 15.9831 19.8889 16.0098 19.8282C16.0364 19.7674 16.0505 19.7019 16.0513 19.6355C16.0521 19.5691 16.0395 19.5033 16.0144 19.4419C15.9892 19.3805 15.952 19.3247 15.9049 19.278C15.8578 19.2313 15.8017 19.1945 15.7401 19.1699C15.6785 19.1452 15.6126 19.1332 15.5462 19.1346H13.8662C13.8482 19.1334 13.8302 19.1334 13.8122 19.1346ZM17.9822 19.1346C17.9172 19.1377 17.8535 19.1537 17.7947 19.1814C17.7359 19.2092 17.6831 19.2483 17.6394 19.2965C17.5957 19.3446 17.5619 19.4009 17.5399 19.4621C17.518 19.5234 17.5084 19.5883 17.5115 19.6533C17.5147 19.7183 17.5306 19.7819 17.5583 19.8408C17.5861 19.8996 17.6252 19.9524 17.6734 19.9961C17.7216 20.0398 17.7778 20.0735 17.8391 20.0955C17.9003 20.1174 17.9653 20.1271 18.0302 20.124H19.6982C19.7643 20.1272 19.8305 20.117 19.8926 20.0942C19.9548 20.0713 20.0118 20.0362 20.0601 19.9909C20.1085 19.9457 20.1473 19.8911 20.1742 19.8306C20.2011 19.7701 20.2156 19.7048 20.2168 19.6386C20.218 19.5723 20.2059 19.5065 20.1812 19.4451C20.1565 19.3836 20.1198 19.3277 20.0731 19.2807C20.0264 19.2337 19.9708 19.1966 19.9095 19.1715C19.8482 19.1464 19.7824 19.1338 19.7162 19.1346H18.0302C18.0142 19.1334 17.9982 19.1334 17.9822 19.1346Z" fill="white"/>
</svg>
