<svg width="12" height="10" viewBox="0 0 12 10" fill="none" xmlns="http://www.w3.org/2000/svg">
<path d="M7.93531 5.80989C7.93531 6.87706 7.06718 7.7452 6 7.7452C4.93282 7.7452 4.06502 6.87706 4.06502 5.80989C4.06502 4.74271 4.93282 3.87457 6 3.87457C7.06718 3.87457 7.93531 4.74304 7.93531 5.80989ZM12 3.06184V8.5586C12 9.29139 11.4059 9.88552 10.6731 9.88552H1.32692C0.594128 9.88552 0 9.29139 0 8.5586V3.06184C0 2.32904 0.594128 1.73492 1.32692 1.73492H2.95903V1.2758C2.95903 0.634567 3.47852 0.114746 4.12009 0.114746H7.87991C8.52148 0.114746 9.04097 0.634567 9.04097 1.2758V1.73458H10.6731C11.4059 1.73492 12 2.32904 12 3.06184ZM8.9305 5.80989C8.9305 4.19403 7.61586 2.87938 6 2.87938C4.38448 2.87938 3.06983 4.19403 3.06983 5.80989C3.06983 7.42574 4.38448 8.74039 6 8.74039C7.61586 8.74039 8.9305 7.42574 8.9305 5.80989Z" fill="white"/>
</svg>
