<svg width="167" height="35" viewBox="0 0 167 35" fill="none" xmlns="http://www.w3.org/2000/svg">
<path d="M19.2804 28.9081C23.0719 28.9081 26.8647 28.884 30.6598 28.917C31.6594 28.9416 32.6369 28.607 33.4298 27.9689C34.2227 27.3307 34.7831 26.4275 35.0179 25.4093C35.2179 24.4832 35.1342 23.5145 34.7786 22.641C34.4231 21.7675 33.8138 21.0336 33.0374 20.5436C32.535 20.2189 32.3292 19.7497 32.4587 19.2235C32.4999 19.0462 32.5811 18.8818 32.6955 18.7441C32.8099 18.6065 32.9541 18.4996 33.1161 18.4324C33.2781 18.3652 33.4531 18.3396 33.6264 18.3579C33.7998 18.3762 33.9664 18.4377 34.1124 18.5374C35.7757 19.6039 36.8434 21.1256 37.1933 23.1546C37.8361 26.8588 35.6195 30.2967 32.1089 31.0702C31.6879 31.161 31.2591 31.2065 30.8293 31.2059C23.1397 31.2135 15.455 31.2287 7.7618 31.2059C3.77659 31.192 0.489881 28.0356 0.0492316 23.88C-0.0666625 22.8036 0.0225479 21.7138 0.311692 20.6738C0.600836 19.6337 1.08416 18.6642 1.73366 17.8213C2.38315 16.9783 3.1859 16.2789 4.09537 15.7633C5.00484 15.2478 6.00294 14.9265 7.03182 14.818C9.7653 14.5314 12.0424 15.5307 13.8522 17.6903C14.3134 18.2394 14.2759 18.9458 13.7905 19.3845C13.305 19.8233 12.6428 19.7256 12.1816 19.1842C10.6224 17.3492 8.67094 16.6479 6.41322 17.2731C4.17245 17.8894 2.79239 19.4796 2.29727 21.8548C1.62782 25.1012 3.87101 28.4046 7.0064 28.8396C7.35452 28.8853 7.70514 28.9069 8.05597 28.9043C11.7999 28.9093 15.5414 28.9106 19.2804 28.9081Z" fill="#097EA2"/>
<path d="M21.1189 13.0846C21.1089 13.9054 20.9614 14.7179 20.6831 15.4852C20.595 15.7495 20.4179 15.9711 20.1848 16.1083C19.9518 16.2454 19.679 16.2887 19.4176 16.23C19.1563 16.1713 18.9244 16.0146 18.7655 15.7894C18.6067 15.5642 18.5318 15.286 18.5549 15.0071C18.5726 14.8708 18.6055 14.7372 18.653 14.6089C18.8569 14.0177 18.9405 13.3883 18.8985 12.7612C18.8566 12.1341 18.6899 11.5231 18.4092 10.9675C18.1285 10.4119 17.74 9.92386 17.2686 9.53478C16.7973 9.14571 16.2535 8.86417 15.6721 8.70823C15.0907 8.5523 14.4847 8.52542 13.8928 8.62932C13.301 8.73322 12.7364 8.9656 12.2353 9.31154C11.7342 9.65749 11.3078 10.1094 10.9832 10.6382C10.6587 11.1669 10.4433 11.761 10.3509 12.3821C10.3191 12.6277 10.3002 12.8749 10.294 13.1227C10.2909 13.2724 10.2593 13.4201 10.2012 13.5569C10.1431 13.6938 10.0595 13.8172 9.9554 13.9199C9.85128 14.0226 9.72869 14.1025 9.59478 14.1551C9.46086 14.2076 9.3183 14.2317 9.1754 14.2259C9.03215 14.2266 8.89025 14.1968 8.7583 14.1383C8.62635 14.0799 8.50709 13.994 8.40773 13.8859C8.30837 13.7778 8.23098 13.6497 8.18024 13.5094C8.1295 13.369 8.10646 13.2194 8.11252 13.0694C8.17547 10.3544 9.34246 8.30511 11.6232 7.0408C15.5709 4.8571 20.4107 7.49478 21.0269 12.1259C21.0753 12.443 21.0899 12.7651 21.1189 13.0846Z" fill="#097EA2"/>
<path d="M35.2118 2.83319C35.353 2.8619 35.4964 2.87802 35.6403 2.88138C36.7178 3.00444 37.7615 3.3492 38.7115 3.89587C39.3857 4.27943 40.0126 4.74788 40.5782 5.2908C40.6375 5.34786 40.6436 5.38084 40.6 5.45185C39.9318 6.56272 39.2644 7.6719 38.5977 8.77939C37.6196 10.4026 36.6422 12.0266 35.6657 13.6515C35.6161 13.7339 35.5834 13.7529 35.495 13.6984C34.1544 12.8621 32.7345 12.174 31.258 11.6453C30.4721 11.3658 29.6608 11.172 28.8369 11.0671C27.7256 10.9403 26.6324 10.9986 25.578 11.4285C24.5374 11.8605 23.6516 12.6221 23.0443 13.6071C22.682 14.1811 22.3866 14.7984 22.1642 15.4459C22.1596 15.479 22.1442 15.5095 22.1206 15.5321C22.1411 15.3321 22.1726 15.1335 22.215 14.9374C22.3955 13.969 22.7874 13.0575 23.3602 12.2743C24.0913 11.3035 25.0921 10.5945 26.2245 10.2453C27.1521 9.95079 28.1223 9.831 29.0899 9.89152C30.8755 9.98156 32.5473 10.5167 34.1513 11.3156C34.4237 11.4513 34.6924 11.5946 34.9551 11.748C35.0108 11.781 35.0374 11.7759 35.0762 11.7189C36.4199 9.66707 37.764 7.61568 39.1086 5.56471C39.1364 5.5216 39.1631 5.49116 39.1086 5.44551C38.3048 4.81457 37.4064 4.32816 36.4502 4.0062C35.7041 3.7596 34.9213 3.65817 34.1404 3.70692C33.2336 3.77227 32.3463 4.0144 31.5243 4.42087C30.5603 4.89972 29.661 5.51035 28.8502 6.23681C28.8364 6.24972 28.8204 6.25963 28.803 6.26598C28.9148 6.07471 29.039 5.89167 29.1746 5.71815C30.1882 4.35498 31.622 3.40254 33.2313 3.02341C33.562 2.94444 33.8978 2.89062 34.236 2.86236C34.2627 2.86236 34.2941 2.8725 34.3147 2.84207L35.2118 2.83319Z" fill="#12CC8E"/>
<path d="M41.0797 9.39299C41.0494 9.39299 41.0373 9.36762 41.0191 9.34987C40.7254 9.06243 40.432 8.77372 40.139 8.48375C40.0894 8.43429 40.07 8.43176 40.0313 8.49643C39.742 8.99226 39.4454 9.48302 39.1561 9.97886C38.7929 10.6129 38.4079 11.2267 38.0496 11.8607C37.9213 12.0865 37.7784 12.3058 37.6453 12.5303C36.9996 13.609 36.3588 14.6895 35.7229 15.7716C35.6163 15.9504 35.6175 15.9479 35.4626 15.8261C35.2047 15.627 34.9457 15.4292 34.6842 15.2365C34.2847 14.941 33.8731 14.6658 33.453 14.4046C32.3731 13.7195 31.2157 13.1785 30.0077 12.7941C29.3412 12.5871 28.6545 12.4595 27.9607 12.4136C27.1789 12.3551 26.3939 12.4633 25.6533 12.7319C24.6628 13.1036 23.8101 13.7943 23.2176 14.7051C22.9601 15.0879 22.7395 15.4966 22.5591 15.9251C22.569 15.9288 22.5798 15.9286 22.5896 15.9247C22.5993 15.9207 22.6074 15.9132 22.6123 15.9035C22.6668 15.8261 22.7201 15.7475 22.7758 15.6702C23.2796 14.9494 23.9447 14.3694 24.7127 13.981C25.2782 13.7074 25.8902 13.5547 26.5128 13.5321C27.1151 13.512 27.7173 13.5764 28.3033 13.7236C28.9877 13.8935 29.6547 14.1331 30.2947 14.4388C31.1211 14.8314 31.9194 15.2861 32.6831 15.7995L35.856 18.1671L35.8645 18.1734C35.919 18.2191 35.9444 18.228 35.9856 18.1544C36.4068 17.4316 36.833 16.7126 37.2567 15.9923L38.2941 14.2296C38.6089 13.6961 38.9232 13.1627 39.2372 12.6292C39.7577 11.7441 40.2787 10.8594 40.8 9.97505C40.8856 9.81628 40.979 9.66222 41.0797 9.51346C41.0809 9.47288 41.0809 9.43357 41.0797 9.39299Z" fill="#12CC8E"/>
<path d="M59.0265 8.80474V6.20542H47.8549V27.0277H50.4266V15.9114H57.8651V13.3121H50.4266V8.80474H59.0265ZM65.9013 13.1738C62.0853 13.1738 58.9882 16.2709 58.9882 20.0869C58.9882 23.9029 62.0853 27 65.9013 27C69.7174 27 72.8144 23.9029 72.8144 20.0869C72.8144 16.2709 69.7174 13.1738 65.9013 13.1738ZM65.9013 24.4007C63.5232 24.4007 61.5876 22.465 61.5876 20.0869C61.5876 17.7088 63.5232 15.7731 65.9013 15.7731C68.2794 15.7731 70.2151 17.7088 70.2151 20.0869C70.2151 22.465 68.2794 24.4007 65.9013 24.4007ZM77.6192 27V20.1146C77.6192 17.7088 79.5549 15.8008 81.933 15.8008V13.2015C80.3015 13.2015 78.7806 13.7822 77.6192 14.7223V13.3121H75.0199V27H77.6192ZM93.7358 20.1146C93.7358 22.465 91.8278 24.373 89.3944 24.373C88.6754 24.373 88.0118 24.1795 87.4034 23.8753L95.1184 16.1326C93.9017 14.3629 91.8278 13.1738 89.3944 13.1738C85.606 13.1738 82.5366 16.2432 82.5366 20.1146C82.5366 23.8753 85.606 26.9723 89.3944 26.9723C93.2657 26.9723 96.3351 23.8753 96.3351 20.1146H93.7358ZM85.1359 20.1146C85.1359 17.6535 87.0163 15.7455 89.3944 15.7455C90.141 15.7455 90.8323 15.9391 91.3854 16.2156L85.5784 22.0226C85.3018 21.4419 85.1359 20.7782 85.1359 20.1146Z" fill="#097EA2"/>
<path d="M113.452 22.1608C110.355 25.2302 105.295 25.2302 102.253 22.1608C99.1838 19.0914 99.1838 14.031 102.253 10.9616C105.295 7.91987 110.355 7.91987 113.452 10.9616L115.222 9.16422C111.13 5.07168 104.521 5.07168 100.456 9.16422C96.3632 13.2568 96.3632 19.8657 100.456 23.9306C104.521 28.0231 111.13 28.0231 115.222 23.9306L113.452 22.1608ZM132.462 24.3454C131.19 23.6817 130.333 22.1885 130.333 20.64V20.0593C130.333 16.2432 127.291 13.1738 123.447 13.1738C119.631 13.1738 116.534 16.2432 116.534 20.0593C116.534 23.9029 119.631 27 123.447 27C125.687 27 127.678 25.9769 128.95 24.2901C129.78 25.5068 130.941 26.6958 132.462 26.9447V24.3454ZM127.734 20.0593C127.734 22.465 125.853 24.4007 123.447 24.4007C121.042 24.4007 119.134 22.465 119.134 20.0593C119.134 17.6812 121.042 15.8008 123.447 15.8008C125.853 15.8008 127.734 17.6812 127.734 20.0593ZM139.92 20.1146C139.92 17.7365 141.856 15.8008 144.234 15.8008V13.2015C140.418 13.2015 137.321 16.2709 137.321 20.1146C137.321 22.4927 135.385 24.4283 133.007 24.4283V27.0277C136.823 27.0277 139.92 23.9306 139.92 20.1146ZM159.193 20.0593C159.166 16.2432 156.096 13.1738 152.28 13.1738C150.649 13.1738 149.128 13.7545 147.967 14.6947V6.28838H145.367V26.9723H147.967V20.004C147.994 17.6258 149.902 15.7455 152.28 15.7455C154.659 15.7455 156.594 17.6535 156.594 20.0593V27H159.193V20.0593Z" fill="#12CC8E"/>
</svg>
