<svg width="14" height="17" viewBox="0 0 14 17" fill="none" xmlns="http://www.w3.org/2000/svg">
<path d="M6.99967 16.8332C6.0792 16.8332 5.33301 16.087 5.33301 15.1665H8.66634C8.66634 16.087 7.92015 16.8332 6.99967 16.8332ZM13.6663 14.3332H0.333008V12.6665L1.99967 11.8332V7.24984C1.99967 4.36484 3.18384 2.494 5.33301 1.98317V0.166504H8.66634V1.98317C10.8155 2.49317 11.9997 4.36317 11.9997 7.24984V11.8332L13.6663 12.6665V14.3332ZM6.99967 3.2915C5.98273 3.22584 5.00199 3.6809 4.39551 4.49984C3.8768 5.3203 3.62229 6.28016 3.66634 7.24984V12.6665H10.333V7.24984C10.377 6.28016 10.1225 5.32032 9.60384 4.49984C8.99735 3.6809 8.01662 3.22584 6.99967 3.2915Z" fill="#1C1C1C"/>
</svg>
