<svg width="20" height="16" viewBox="0 0 20 16" fill="none" xmlns="http://www.w3.org/2000/svg">
<path d="M10.3402 12.4233C8.10026 12.4233 6.28701 10.6945 6.12015 8.50354L3.02227 6.11622C2.61502 6.62566 2.24027 7.16426 1.93786 7.75321C1.8703 7.88647 1.83511 8.03369 1.83511 8.183C1.83511 8.33232 1.8703 8.47954 1.93786 8.61279C3.53937 11.7287 6.7099 13.8368 10.3402 13.8368C11.1349 13.8368 11.9016 13.719 12.6405 13.5288L11.1081 12.3465C10.855 12.3952 10.598 12.4209 10.3402 12.4233ZM19.6079 14.1342L16.3432 11.6182C17.3349 10.7848 18.1505 9.76311 18.7426 8.6125C18.8102 8.47924 18.8454 8.33202 18.8454 8.18271C18.8454 8.0334 18.8102 7.88617 18.7426 7.75292C17.1411 4.63706 13.9706 2.5289 10.3402 2.5289C8.8198 2.53073 7.32405 2.91241 5.98962 3.63907L2.23259 0.743481C2.1836 0.705466 2.12757 0.677451 2.06772 0.661035C2.00786 0.644619 1.94535 0.640125 1.88375 0.64781C1.82215 0.655494 1.76268 0.675207 1.70872 0.705821C1.65477 0.736435 1.60739 0.77735 1.5693 0.826229L0.989595 1.57037C0.912694 1.66902 0.878235 1.79408 0.893797 1.91806C0.909359 2.04204 0.973668 2.15477 1.07258 2.23147L18.4479 15.6222C18.4969 15.6602 18.5529 15.6883 18.6128 15.7047C18.6726 15.7211 18.7351 15.7256 18.7967 15.7179C18.8583 15.7102 18.9178 15.6905 18.9718 15.6599C19.0257 15.6293 19.0731 15.5884 19.1112 15.5395L19.6912 14.7953C19.7681 14.6967 19.8025 14.5716 19.7869 14.4476C19.7712 14.3236 19.7069 14.2109 19.6079 14.1342ZM14.1823 9.95266L13.0217 9.05804C13.1195 8.77636 13.1713 8.48089 13.1753 8.18286C13.1811 7.74652 13.0841 7.31491 12.8923 6.92271C12.7004 6.53051 12.419 6.18864 12.0706 5.92457C11.7222 5.6605 11.3165 5.48159 10.8862 5.40221C10.4559 5.32282 10.0129 5.34518 9.5928 5.46748C9.77087 5.7081 9.86721 5.99916 9.86774 6.2982C9.86333 6.39772 9.84808 6.49646 9.82226 6.59268L7.64842 4.9174C8.40354 4.28816 9.35616 3.94311 10.3402 3.94239C10.8988 3.94208 11.4519 4.05155 11.968 4.26454C12.4841 4.47754 12.953 4.78987 13.348 5.1837C13.7429 5.57753 14.0561 6.04511 14.2697 6.55973C14.4833 7.07435 14.5931 7.6259 14.5928 8.18286C14.5928 8.81981 14.4366 9.41348 14.1823 9.95296V9.95266Z" fill="#777C90"/>
</svg>
