<svg width="36" height="36" viewBox="0 0 36 36" fill="none" xmlns="http://www.w3.org/2000/svg">
<rect width="36" height="36" rx="5" fill="#FFF4EB"/>
<path d="M23.6174 9.69497C23.2506 9.69497 22.8989 9.84034 22.6396 10.0991C22.3803 10.3578 22.2346 10.7088 22.2346 11.0747V16.3453L22.041 16.1384L14.9886 10.3297C14.5641 9.99023 14.0525 9.77663 13.5122 9.71321C12.9718 9.64978 12.4245 9.73908 11.9326 9.97092C11.518 10.169 11.1681 10.4801 10.9234 10.8684C10.6787 11.2566 10.5491 11.7061 10.5498 12.1647V23.7821C10.5491 24.2408 10.6787 24.6902 10.9234 25.0784C11.1681 25.4667 11.518 25.7778 11.9326 25.9759C12.3279 26.1553 12.7567 26.2493 13.191 26.2518C13.8455 26.2526 14.4803 26.0285 14.9886 25.6172L22.041 19.8085L22.2346 19.6015V24.8721C22.2346 25.238 22.3803 25.589 22.6396 25.8477C22.8989 26.1065 23.2506 26.2518 23.6174 26.2518C23.9841 26.2518 24.3359 26.1065 24.5952 25.8477C24.8545 25.589 25.0002 25.238 25.0002 24.8721V11.0747C25.0002 10.7088 24.8545 10.3578 24.5952 10.0991C24.3359 9.84034 23.9841 9.69497 23.6174 9.69497ZM13.2463 23.3682V12.4544L19.9114 17.9734L13.2463 23.3682Z" fill="#FF8723"/>
</svg>
