<svg width="36" height="36" viewBox="0 0 36 36" fill="none" xmlns="http://www.w3.org/2000/svg">
<rect width="36" height="36" rx="5" fill="#ECF4FF"/>
<path d="M17.6202 13.11H15.8802V14.81H14.5902V13.11H12.8602V11.89H14.5902V10.19H15.8802V11.89H17.6202V13.11ZM21.1017 9V16H19.4817V10.3H18.0817V9H21.1017ZM20.7938 21L18.5038 28H16.7638L15.2238 23.26L13.6338 28H11.9038L9.60379 21H11.2838L12.8638 25.92L14.5138 21H16.0138L17.6138 25.96L19.2438 21H20.7938ZM24.0446 25.89L23.2946 26.63V28H21.7346V20.58H23.2946V24.78L25.5746 22.62H27.4346L25.1946 24.9L27.6346 28H25.7446L24.0446 25.89Z" fill="#1178FF"/>
</svg>
