<svg width="13" height="14" viewBox="0 0 13 14" fill="none" xmlns="http://www.w3.org/2000/svg">
<path d="M6.5 2C5.17392 2 3.90215 2.52678 2.96447 3.46447C2.02678 4.40215 1.5 5.67392 1.5 7C1.5 8.32608 2.02678 9.59785 2.96447 10.5355C3.90215 11.4732 5.17392 12 6.5 12C7.82608 12 9.09785 11.4732 10.0355 10.5355C10.9732 9.59785 11.5 8.32608 11.5 7C11.5 5.67392 10.9732 4.40215 10.0355 3.46447C9.09785 2.52678 7.82608 2 6.5 2ZM0.25 7C0.25 3.54813 3.04813 0.75 6.5 0.75C9.95188 0.75 12.75 3.54813 12.75 7C12.75 10.4519 9.95188 13.25 6.5 13.25C3.04813 13.25 0.25 10.4519 0.25 7Z" fill="white"/>
<path d="M6.5 5.75C6.66576 5.75 6.82473 5.81585 6.94194 5.93306C7.05915 6.05027 7.125 6.20924 7.125 6.375V10.125C7.125 10.2908 7.05915 10.4497 6.94194 10.5669C6.82473 10.6842 6.66576 10.75 6.5 10.75C6.33424 10.75 6.17527 10.6842 6.05806 10.5669C5.94085 10.4497 5.875 10.2908 5.875 10.125V6.375C5.875 6.20924 5.94085 6.05027 6.05806 5.93306C6.17527 5.81585 6.33424 5.75 6.5 5.75ZM7.4375 4.1875C7.4375 4.43614 7.33873 4.6746 7.16291 4.85041C6.9871 5.02623 6.74864 5.125 6.5 5.125C6.25136 5.125 6.0129 5.02623 5.83709 4.85041C5.66127 4.6746 5.5625 4.43614 5.5625 4.1875C5.5625 3.93886 5.66127 3.7004 5.83709 3.52459C6.0129 3.34877 6.25136 3.25 6.5 3.25C6.74864 3.25 6.9871 3.34877 7.16291 3.52459C7.33873 3.7004 7.4375 3.93886 7.4375 4.1875Z" fill="white"/>
</svg>
